<?xml version="1.0" encoding="UTF-8"?>
<svg viewBox="0 0 40 40" version="1.1" xmlns="http://www.w3.org/2000/svg" xmlns:xlink="http://www.w3.org/1999/xlink">
    <title>形状结合</title>
    <defs>
        <filter id="filter-1">
            <feColorMatrix in="SourceGraphic" type="matrix" values="0 0 0 0 0.992157 0 0 0 0 0.313725 0 0 0 0 0.313725 0 0 0 1.000000 0"></feColorMatrix>
        </filter>
    </defs>
    <g id="BIM模型管理" stroke="none" stroke-width="1" fill="none" fill-rule="evenodd">
        <g id="编组备份-4" transform="translate(-274.000000, -47.000000)">
            <path d="M3,0 L703,0 C704.656854,-7.48448398e-16 706,1.34314575 706,3 L706,318 C706,319.656854 704.656854,321 703,321 L3,321 C1.34314575,321 2.02906125e-16,319.656854 0,318 L0,3 C2.41183085e-16,1.34314575 1.34314575,3.04359188e-16 3,0 Z" id="bg" fill="#FFFFFF"></path>
            <g id="编组" transform="translate(274.000000, 47.000000)" filter="url(#filter-1)">
                <g>
                    <path d="M20,0.000234375 C8.95441406,0.000234375 0.000234375,8.95441406 0.000234375,20 C0.000234375,31.0455469 8.95445313,39.9997266 20,39.9997266 C31.0455469,39.9997266 39.9997266,31.0455078 39.9997266,20 C39.9997266,8.95441406 31.0455469,0.000234375 20,0.000234375 Z M32.4846484,32.4846484 C30.8623828,34.106875 28.9739453,35.3802734 26.8717969,36.2694531 C24.6965625,37.1894922 22.3845703,37.6559766 20,37.6559766 C17.6154297,37.6559766 15.3033984,37.1894922 13.1282031,36.2694531 C11.0260156,35.3802734 9.13753906,34.1069141 7.5153125,32.4846484 C5.89304687,30.8623828 4.6196875,28.9739453 3.73050781,26.8717969 C2.81046875,24.6965625 2.34398437,22.3845703 2.34398437,20 C2.34398437,17.6154297 2.81046875,15.3033984 3.73050781,13.1282031 C4.61964844,11.0260156 5.89304687,9.13757813 7.5153125,7.5153125 C9.13757813,5.89304687 11.0260156,4.6196875 13.1282031,3.73050781 C15.3033984,2.81046875 17.6154297,2.34398437 20,2.34398437 C22.3845703,2.34398437 24.6965625,2.81046875 26.8717969,3.73050781 C28.9739453,4.6196875 30.8623828,5.89304687 32.4846484,7.5153125 C34.106875,9.13757813 35.3802734,11.0260547 36.2694531,13.1282031 C37.1894922,15.3033984 37.6559766,17.6154297 37.6559766,20 C37.6559766,22.3845703 37.1894922,24.6965625 36.2694531,26.8717969 C35.3802734,28.9739453 34.1069141,30.8623828 32.4846484,32.4846484 Z" id="形状" fill="#000000" fill-rule="nonzero"></path>
                    <path d="M29.2880078,10.7119531 C28.6778125,10.1017578 27.6885156,10.1017578 27.0783203,10.7119531 L20,17.7903125 L12.9216797,10.7119922 C12.3114844,10.1017969 11.3221875,10.1017969 10.7119922,10.7119922 C10.1017969,11.3221875 10.1017969,12.3114844 10.7119922,12.9216797 L17.7903125,20 L10.7119922,27.0782812 C10.1017969,27.6884766 10.1017969,28.6777734 10.7119922,29.2879687 C11.0171094,29.5930859 11.4169531,29.7456641 11.8168359,29.7456641 C12.2167187,29.7456641 12.6166016,29.5930859 12.9216797,29.2879687 L20,22.2096875 L27.0783203,29.2880078 C27.3834375,29.593125 27.7832813,29.7456641 28.1831641,29.7456641 C28.5830469,29.7456641 28.9829297,29.593125 29.2880078,29.2880078 C29.8982031,28.6778125 29.8982031,27.6885156 29.2880078,27.0783203 L22.2096875,20 L29.2880078,12.9216406 C29.8982422,12.3114453 29.8982422,11.3221484 29.2880078,10.7119531 Z" id="路径" fill="#000000" fill-rule="nonzero"></path>
                </g>
            </g>
        </g>
    </g>
</svg>