<?xml version="1.0" encoding="UTF-8"?>
<svg width="42px" height="42px" viewBox="0 0 42 42" version="1.1" xmlns="http://www.w3.org/2000/svg" xmlns:xlink="http://www.w3.org/1999/xlink">
    <title>社管后台模板</title>
    <defs>
        <path d="M3.06513409,-2.22044605e-14 C2.25220998,-2.22044605e-14 1.47258113,0.322932846 0.897756982,0.897756998 C0.322932835,1.47258115 1.61648472e-13,2.25221001 1.61648472e-13,3.06513411 L1.61648472e-13,10.7279694 C1.61648472e-13,12.4207962 1.37230728,13.7931034 3.06513409,13.7931034 L16.8582375,13.7931034 C18.5510644,13.7931034 19.9233716,12.4207962 19.9233716,10.7279694 L19.9233716,3.06513411 C19.9233716,2.25221001 19.6004388,1.47258115 19.0256147,0.897756998 C18.4507905,0.322932846 17.6711616,-2.22044605e-14 16.8582375,-2.22044605e-14 L3.06513409,-2.22044605e-14 Z" id="path-1"></path>
    </defs>
    <g id="页面-1" stroke="none" stroke-width="1" fill="none" fill-rule="evenodd">
        <g id="工作台" transform="translate(-29.000000, -285.000000)">
            <g id="社管后台模板" transform="translate(29.000000, 285.000000)">
                <rect id="矩形" fill="#3D80FC" x="0" y="0" width="42" height="42" rx="8"></rect>
                <path d="M15.8849377,10.6090457 C16.5197478,10.6090457 17.034363,11.123661 17.034363,11.758471 L17.034363,11.758471 L17.034363,14.0573216 C17.034363,14.6921316 16.5197478,15.2067469 15.8849377,15.2067469 C15.2501277,15.2067469 14.7355125,14.6921316 14.7355125,14.0573216 L14.7355125,14.0573216 L14.7355125,11.758471 C14.7355125,11.123661 15.2501277,10.6090457 15.8849377,10.6090457 Z M26.6129071,10.6090458 C27.2477171,10.6090458 27.7623324,11.123661 27.7623324,11.758471 L27.7623324,11.758471 L27.7623324,14.0573216 C27.7623324,14.6921316 27.2477171,15.2067468 26.6129071,15.2067468 C25.978097,15.2067468 25.4634818,14.6921316 25.4634818,14.0573216 L25.4634818,14.0573216 L25.4634818,11.758471 C25.4634818,11.123661 25.978097,10.6090458 26.6129071,10.6090458 Z" id="形状结合" fill="#8DB8FC"></path>
                <g id="renwu" transform="translate(11.281250, 11.601562)">
                    <path d="M0.00598659752,3.98832615 C0.00598659752,2.29549933 1.37829387,0.923192057 3.07112069,0.923192057 L16.8642241,0.923192057 C17.6771482,0.923192057 18.4567771,1.2461249 19.0316012,1.82094905 C19.6064254,2.39577319 19.9293582,3.17540204 19.9293582,3.98832615 L19.9293582,15.482579 C19.9293582,17.1754058 18.557051,18.5477131 16.8642241,18.5477131 L3.07112069,18.5477131 C1.37829387,18.5477131 0.00598659752,17.1754058 0.00598659752,15.482579 L0.00598659752,3.98832615 Z" id="路径" fill-opacity="0.802147072" fill="#E4EFFF" fill-rule="nonzero"></path>
                    <g id="Fill-5" transform="translate(0.000000, 5.000000)">
                        <mask id="mask-2" fill="white">
                            <use xlink:href="#path-1"></use>
                        </mask>
                        <use id="蒙版" fill="#FFFFFF" fill-rule="nonzero" xlink:href="#path-1"></use>
                        <path d="M4.98108237,8.39655172 C5.80950949,8.39655172 6.48108237,7.72497885 6.48108237,6.89655172 C6.48108237,6.0681246 5.80950949,5.39655172 4.98108237,5.39655172 C4.15265524,5.39655172 3.48108237,6.0681246 3.48108237,6.89655172 C3.48108237,7.72497885 4.15265524,8.39655172 4.98108237,8.39655172 Z" id="椭圆形" fill="#C2D9FE" opacity="0.731863839" mask="url(#mask-2)"></path>
                        <path d="M9.98108237,8.39655172 C10.8095095,8.39655172 11.4810824,7.72497885 11.4810824,6.89655172 C11.4810824,6.0681246 10.8095095,5.39655172 9.98108237,5.39655172 C9.15265524,5.39655172 8.48108237,6.0681246 8.48108237,6.89655172 C8.48108237,7.72497885 9.15265524,8.39655172 9.98108237,8.39655172 Z" id="椭圆形" fill="#C2D9FE" opacity="0.731863839" mask="url(#mask-2)"></path>
                        <path d="M14.9810824,8.39655172 C15.8095095,8.39655172 16.4810824,7.72497885 16.4810824,6.89655172 C16.4810824,6.0681246 15.8095095,5.39655172 14.9810824,5.39655172 C14.1526552,5.39655172 13.4810824,6.0681246 13.4810824,6.89655172 C13.4810824,7.72497885 14.1526552,8.39655172 14.9810824,8.39655172 Z" id="椭圆形" fill="#C2D9FE" opacity="0.731863839" mask="url(#mask-2)"></path>
                    </g>
                </g>
            </g>
        </g>
    </g>
</svg>